<?xml version="1.0" encoding="UTF-8" standalone="no"?>
<!-- Created with Inkscape (http://www.inkscape.org/) -->

<svg
   width="103.665mm"
   height="103.665mm"
   viewBox="0 0 103.665 103.665"
   version="1.1"
   id="svg1"
   xml:space="preserve"
   inkscape:version="1.4.2 (f4327f4, 2025-05-13)"
   sodipodi:docname="favicon.svg"
   xmlns:inkscape="http://www.inkscape.org/namespaces/inkscape"
   xmlns:sodipodi="http://sodipodi.sourceforge.net/DTD/sodipodi-0.dtd"
   xmlns="http://www.w3.org/2000/svg"
   xmlns:svg="http://www.w3.org/2000/svg"><sodipodi:namedview
     id="namedview1"
     pagecolor="#505050"
     bordercolor="#eeeeee"
     borderopacity="1"
     inkscape:showpageshadow="0"
     inkscape:pageopacity="0"
     inkscape:pagecheckerboard="0"
     inkscape:deskcolor="#505050"
     inkscape:document-units="mm"
     inkscape:zoom="1.0167041"
     inkscape:cx="117.04487"
     inkscape:cy="65.407429"
     inkscape:window-width="1920"
     inkscape:window-height="1009"
     inkscape:window-x="-8"
     inkscape:window-y="690"
     inkscape:window-maximized="1"
     inkscape:current-layer="g4" /><defs
     id="defs1" /><g
     inkscape:label="Calque 1"
     inkscape:groupmode="layer"
     id="layer1"
     transform="translate(-53.1675,-193.335)"><circle
       style="opacity:0.88125;fill:#91cfea;fill-opacity:0.704449;stroke-width:0.258958"
       id="path4"
       cx="105"
       cy="245.1675"
       r="51.8325" /><g
       id="g4"
       transform="translate(0.85684264,98.626159)"><path
         style="fill:#91cfea;fill-opacity:1"
         d="m 89.467868,156.71042 c 1.669795,-0.99782 -17.439281,-14.21122 -15.620271,-13.92277 5.144451,0.8158 5.758599,0.69591 7.275182,0.37041 6.414297,-1.37666 14.649008,-2.2071 23.701921,-1.74595 l 7.38427,0.37615 c 11.69718,-8.6413 -32.52862,31.98997 -22.532168,28.52174 37.659768,-13.06591 -9.470642,-8.06506 -0.208934,-13.59958 z"
         id="path3"
         sodipodi:nodetypes="sssscss" /><path
         style="fill:#5ebae2;fill-opacity:1"
         d="m 84.49632,162.62779 c 3.465991,1.03865 13.783389,-13.25177 14.430856,-13.33403 1.445074,-0.18358 6.636934,-3.2216 10.661774,-6.23873 10.02795,-7.51722 19.82387,-12.21148 29.97876,-14.47781 3.14701,-0.70234 7.96806,-1.29358 10.63623,-1.30438 l 2.06026,0.061 c 0,0 1.33902,3.4384 1.75939,5.13502 0.61835,2.49569 1.21369,4.93681 1.54324,7.66656 0.30609,2.53536 0.49552,5.2282 0.22267,8.14487 -0.18153,1.94047 -23.84388,7.43642 -24.1885,9.06453 -23.89661,29.97723 -130.0904681,-32.10964 -47.10468,5.28296 z"
         id="path2"
         sodipodi:nodetypes="ssssccsssss" /><path
         style="fill:#2aa2d6;fill-opacity:1"
         d="m 100.80625,198.26281 c -13.154969,-1.06568 -24.368909,-6.11645 -33.23138,-14.96746 -8.680351,-8.66912 -13.877469,-19.72774 -15.079154,-32.08598 -0.272869,-2.80621 -0.225565,-8.70209 0.07221,-8.99986 0.263309,-0.26331 5.117275,-0.65325 8.153954,-0.65504 9.122931,-0.005 19.101193,1.74242 31.749999,5.56135 5.670915,1.71217 10.557681,2.82381 16.410361,3.73305 5.24146,0.81428 17.07257,0.88642 22.35109,0.13629 8.44869,-1.20065 16.28606,-3.36736 22.96448,-6.34875 1.3372,-0.59695 1.55372,-0.63108 1.69344,-0.26696 0.25188,0.65639 -0.13544,7.37079 -0.58534,10.14721 -3.10421,19.15656 -16.30655,34.77436 -34.77276,41.13467 -5.86428,2.01984 -13.8995,3.08355 -19.7269,2.61148 z"
         id="path1" /></g></g></svg>
